<?xml version="1.0" encoding="UTF-8" standalone="no"?>
<svg
   version="1.1"
   id="Layer_1"
   x="0px"
   y="0px"
   viewBox="0 0 100 99.999998"
   xml:space="preserve"
   class="lvg-logo"
   sodipodi:docname="logo.svg"
   width="100"
   height="100"
   inkscape:version="1.2.2 (b0a8486541, 2022-12-01)"
   xmlns:inkscape="http://www.inkscape.org/namespaces/inkscape"
   xmlns:sodipodi="http://sodipodi.sourceforge.net/DTD/sodipodi-0.dtd"
   xmlns="http://www.w3.org/2000/svg"
   xmlns:svg="http://www.w3.org/2000/svg"><defs
   id="defs43">
	
	
	

		
		
		
		
		
		
		
		
		
		
		
		
		
		
		
	</defs><sodipodi:namedview
   id="namedview41"
   pagecolor="#ffffff"
   bordercolor="#000000"
   borderopacity="0.25"
   inkscape:showpageshadow="2"
   inkscape:pageopacity="0.0"
   inkscape:pagecheckerboard="0"
   inkscape:deskcolor="#d1d1d1"
   showgrid="false"
   inkscape:zoom="2.330634"
   inkscape:cx="-41.83411"
   inkscape:cy="43.121314"
   inkscape:window-width="1920"
   inkscape:window-height="1131"
   inkscape:window-x="0"
   inkscape:window-y="0"
   inkscape:window-maximized="1"
   inkscape:current-layer="Layer_1" />
<g
   id="g822"
   transform="translate(-2.765,-2.6152052)"><path
     d="m 87.69,64.07 c 0.15,-1.34 -0.84,-2.55 -2.12,-2.77 -0.48,1.65 -1.09,3.25 -1.8,4.79 0.88,0.57 2.2,0.46 2.98,-0.23 2.22,2.04 1.78,5.17 0.13,7.12 -0.3,-1.08 -0.93,-2.08 -1.89,-2.97 0.37,-1.26 -0.3,-2.7 -1.59,-3.14 -0.24,0.5 -0.52,0.98 -0.79,1.46 -0.01,-0.01 -0.01,0 0,0 -0.01,0 -0.01,-0.01 0,0 -0.49,0.83 -1.27,2.17 -1.8,2.95 0.8,0.73 2.07,0.81 2.96,0.29 1.96,2.03 1.53,4.69 -0.75,6.72 -0.2,-1.05 -0.79,-2.03 -1.75,-2.92 0.58,-1.21 0.12,-2.64 -1,-3.33 -1.01,1.39 -2.12,2.69 -3.32,3.92 0.66,0.82 1.93,1.12 2.87,0.74 5.52,4.89 -10.26,11.9 -14.21,13.38 -4.1,1.41 -8.46,-4.95 -12.93,-5.11 h -0.16 c -4.47,0.15 -8.83,6.52 -12.93,5.11 -3.96,-1.49 -19.85,-8.55 -14.14,-13.44 0.97,0.45 2.3,0.17 2.99,-0.68 -1.2,-1.22 -2.31,-2.53 -3.32,-3.92 -1.08,0.66 -1.54,2.01 -1.05,3.2 -1.05,0.92 -1.68,1.94 -1.89,3.04 -2.31,-2.06 -2.72,-4.75 -0.69,-6.79 0.9,0.59 2.24,0.55 3.08,-0.22 -0.97,-1.4 -1.83,-2.87 -2.59,-4.41 -1.24,0.42 -1.92,1.78 -1.63,3 -1.04,0.93 -1.71,1.97 -2.03,3.11 -1.67,-1.97 -2.09,-5.16 0.22,-7.2 0.77,0.75 2.15,0.9 3.07,0.31 -0.71,-1.54 -1.31,-3.14 -1.8,-4.79 -1.23,0.22 -2.2,1.34 -2.13,2.64 -5.53,4.06 -1.59,9.97 1.62,14.04 l 0.02,-0.02 c 1.4,1.82 3.02,3.53 4.67,5.1 L 24,83.04 c 4.28,3.94 9.35,6.96 14.83,8.89 4.34,1.63 8.95,4.98 13.68,5.06 h 0.16 C 57.4,96.91 62.01,93.56 66.35,91.93 71.83,90 76.91,86.97 81.18,83.04 l 0.01,0.01 c 1.66,-1.58 3.27,-3.28 4.67,-5.1 l 0.02,0.02 c 3.2,-4.01 7.09,-9.84 1.81,-13.9 z M 52.63,94.09 c -2.73,0 -4.94,-1.39 -4.94,-3.1 0,-1.71 2.21,-3.1 4.94,-3.1 2.73,0 4.94,1.39 4.94,3.1 0,1.71 -2.21,3.1 -4.94,3.1 z"
     id="path2"
     style="fill:#000000" /><path
     d="m 15.61,52.89 c 0.61,-0.01 1.03,-0.07 1.23,-0.24 0.22,-0.17 0.32,-0.41 0.3,-1.36 -0.02,-1.18 -0.06,-1.55 -1.58,-2.29 -0.13,-0.1 -0.08,-0.4 0.07,-0.5 0.68,0.05 1.76,0.35 2.11,0.53 -0.02,0.69 -0.01,1.94 0.01,3 l 0.03,1.74 c 0.01,0.6 0.03,1.25 0.07,2.05 -0.08,0.12 -0.38,0.15 -0.46,0.05 l -0.07,-0.49 c -0.09,-0.58 -0.19,-0.66 -1.4,-0.64 l -4.83,0.07 C 9.88,54.83 9.76,54.91 9.7,55.5 L 9.65,55.88 C 9.57,56.01 9.27,56.02 9.19,55.86 9.21,55.18 9.21,54.53 9.2,53.91 9.19,53.29 9.17,52.64 9.13,51.99 9.21,51.89 9.51,51.88 9.59,51.98 l 0.06,0.34 c 0.1,0.58 0.21,0.66 1.41,0.64 z"
     id="path4"
     style="fill:#000000" /><path
     d="M 11.18,47.21 C 10,46.98 9.9,47.05 9.68,47.6 l -0.12,0.3 c -0.1,0.09 -0.38,0.05 -0.43,-0.11 0.14,-0.61 0.28,-1.24 0.39,-1.86 0.12,-0.62 0.23,-1.25 0.32,-1.87 0.1,-0.09 0.38,-0.03 0.44,0.08 l -0.01,0.32 c -0.01,0.59 0.08,0.69 1.27,0.92 l 2.95,0.56 c 1.49,0.28 3.17,0.43 3.54,-1.51 0.31,-1.63 -1.02,-2.4 -2.77,-2.74 L 13.72,41.4 c -1.03,-0.2 -2.01,-0.33 -2.37,-0.25 -0.29,0.06 -0.42,0.33 -0.55,0.66 l -0.13,0.33 c -0.12,0.08 -0.37,0.01 -0.44,-0.08 0.16,-0.68 0.27,-1.18 0.37,-1.7 0.09,-0.47 0.17,-0.95 0.23,-1.44 0.09,-0.06 0.35,-0.04 0.43,0.08 l 0.01,0.24 c 0.01,0.35 0.04,0.6 0.29,0.77 0.3,0.2 1.26,0.44 2.3,0.64 l 1.43,0.27 c 1.2,0.23 2.28,0.55 2.92,1.4 0.49,0.68 0.63,1.67 0.44,2.7 -0.18,0.97 -0.5,1.81 -1.2,2.39 -0.68,0.56 -1.67,0.66 -3.06,0.39 z"
     id="path6"
     style="fill:#000000" /><path
     d="m 20.52,32.72 c 0.77,0.35 1.51,0.7 1.91,0.85 0.1,0.15 0.08,0.54 -0.05,0.82 -0.01,0.01 -0.79,0.12 -1.73,0.36 l -4.63,1.17 c -1.15,0.3 -1.83,0.46 -2.1,0.59 0.09,0.11 0.29,0.21 0.73,0.41 l 2.29,1.05 c 0.96,0.44 1.86,0.8 2.24,0.82 0.3,0.01 0.5,-0.23 0.69,-0.51 l 0.2,-0.31 c 0.14,-0.05 0.38,0.09 0.41,0.19 -0.32,0.63 -0.55,1.09 -0.76,1.56 -0.2,0.44 -0.39,0.88 -0.57,1.34 -0.1,0.04 -0.36,-0.05 -0.41,-0.19 l 0.06,-0.22 c 0.09,-0.35 0.11,-0.62 -0.09,-0.83 -0.26,-0.28 -1.13,-0.72 -2.08,-1.16 l -3,-1.38 c -0.65,-0.3 -0.84,-0.37 -1.04,-0.38 -0.24,0 -0.46,0.1 -0.71,0.49 l -0.2,0.31 c -0.13,0.04 -0.41,-0.1 -0.39,-0.24 0.28,-0.54 0.56,-1.13 0.79,-1.61 0.18,-0.4 0.33,-0.75 0.42,-1.01 0.58,0.13 1.83,-0.23 3.59,-0.71 l 1.63,-0.45 c 0.85,-0.24 1.42,-0.39 1.82,-0.54 -0.1,-0.1 -0.3,-0.19 -0.51,-0.29 L 17.4,32.1 c -0.96,-0.44 -1.86,-0.8 -2.24,-0.82 -0.3,-0.01 -0.5,0.21 -0.69,0.51 l -0.19,0.3 C 14.14,32.14 13.9,32 13.87,31.9 c 0.32,-0.63 0.54,-1.08 0.76,-1.57 0.2,-0.44 0.38,-0.87 0.57,-1.34 0.1,-0.04 0.36,0.05 0.41,0.19 l -0.06,0.23 c -0.09,0.33 -0.1,0.6 0.1,0.82 0.26,0.28 1.12,0.73 2.08,1.17 z"
     id="path8"
     style="fill:#000000" /><path
     d="m 18.42,28.11 c -0.95,-0.79 -1.15,-0.93 -1.59,-0.52 l -0.18,0.17 c -0.13,0.06 -0.42,-0.18 -0.33,-0.31 0.65,-0.88 1.26,-1.69 2.15,-2.75 0.69,-0.82 1.45,-1.57 2.28,-2.05 1.56,-0.91 3.34,-0.64 4.59,0.4 1.33,1.12 1.88,2.66 1.48,4.28 -0.23,0.96 -0.79,1.89 -1.65,2.91 -0.39,0.47 -0.87,0.92 -1.17,1.28 -0.4,0.48 -0.82,0.99 -1.27,1.58 -0.13,0.03 -0.37,-0.17 -0.35,-0.29 l 0.21,-0.35 c 0.31,-0.51 0.28,-0.63 -0.64,-1.4 z m 4.36,1.23 c 0.55,0.46 0.92,0.74 1.28,0.74 0.35,-0.01 0.68,-0.23 0.98,-0.58 1.45,-1.72 0.41,-3.6 -0.95,-4.74 -1.79,-1.51 -3.65,-1.45 -5.17,0.35 -0.23,0.27 -0.33,0.5 -0.3,0.63 0.03,0.13 0.21,0.3 0.52,0.56 z"
     id="path10"
     style="fill:#000000" /><path
     d="m 33.59,18.8 c 0.27,1.69 0.53,2.74 0.66,3.51 -0.05,0.11 -0.17,0.23 -0.33,0.33 -0.13,0.08 -0.25,0.11 -0.35,0.1 -0.31,-0.22 -0.86,-0.69 -1.25,-0.97 L 27.73,18.4 c -1.08,-0.8 -1.15,-0.78 -1.56,-0.65 l -0.51,0.17 c -0.17,-0.07 -0.26,-0.28 -0.19,-0.4 0.57,-0.34 0.95,-0.55 1.52,-0.9 0.51,-0.32 0.97,-0.62 1.63,-1.07 0.13,0.01 0.25,0.23 0.25,0.37 l -0.29,0.27 c -0.17,0.17 -0.21,0.28 -0.14,0.38 0.05,0.09 0.52,0.44 1.2,0.94 l 2.52,1.87 0.94,0.7 c -0.03,-0.24 -0.09,-0.73 -0.16,-1.14 l -0.23,-1.3 c -0.16,-0.87 -0.46,-2.4 -0.56,-2.86 -0.05,-0.26 -0.1,-0.4 -0.14,-0.47 -0.05,-0.08 -0.16,-0.07 -0.47,0.03 l -0.4,0.14 c -0.14,-0.03 -0.29,-0.26 -0.19,-0.4 0.53,-0.3 0.96,-0.55 1.38,-0.82 0.37,-0.23 0.7,-0.45 1,-0.67 0.12,-0.01 0.29,0.25 0.26,0.36 l -0.25,0.23 c -0.27,0.25 -0.41,0.44 -0.41,0.76 -0.02,0.52 0.09,1.31 0.28,2.43 z"
     id="path12"
     style="fill:#000000" /><path
     d="m 39.23,17.62 c 0.47,1.13 0.58,1.18 1.17,1.05 l 0.36,-0.08 c 0.13,0.03 0.23,0.31 0.17,0.43 -0.66,0.25 -1.25,0.48 -1.82,0.71 -0.58,0.24 -1.17,0.5 -1.81,0.8 -0.13,-0.03 -0.24,-0.31 -0.17,-0.42 l 0.31,-0.2 c 0.51,-0.33 0.55,-0.44 0.08,-1.57 L 35.68,13.92 C 35.21,12.79 35.1,12.74 34.51,12.87 l -0.36,0.08 c -0.12,-0.03 -0.24,-0.31 -0.17,-0.42 0.66,-0.25 1.26,-0.48 1.84,-0.72 0.56,-0.23 1.16,-0.5 1.8,-0.79 0.12,0.03 0.24,0.31 0.17,0.42 l -0.31,0.2 c -0.51,0.33 -0.55,0.44 -0.08,1.57 z"
     id="path14"
     style="fill:#000000" /><path
     d="m 43.7,18.37 c -1.16,0.3 -1.96,0.16 -2.26,0.08 -0.31,-0.21 -0.71,-1.08 -0.93,-1.93 0.05,-0.19 0.33,-0.27 0.47,-0.16 0.46,0.75 1.61,1.69 2.68,1.41 0.93,-0.24 1.19,-1 1.03,-1.62 -0.27,-1.02 -1.38,-1.37 -2.23,-1.55 -1.02,-0.22 -2.21,-0.71 -2.54,-1.96 -0.38,-1.42 0.47,-2.69 2.29,-3.16 0.42,-0.11 0.94,-0.19 1.49,-0.17 0.18,0.01 0.29,0 0.45,-0.01 0.17,0.25 0.48,0.9 0.7,1.74 -0.02,0.17 -0.33,0.26 -0.48,0.17 -0.38,-0.59 -1.16,-1.36 -2.07,-1.13 -0.83,0.22 -1.14,0.88 -0.98,1.5 0.15,0.58 0.8,0.97 1.52,1.14 l 0.94,0.22 c 0.89,0.21 2.07,0.68 2.43,2.07 0.4,1.52 -0.61,2.86 -2.51,3.36 z"
     id="path16"
     style="fill:#000000" /><path
     d="m 49.78,15.14 c 0.14,1.21 0.22,1.3 0.83,1.33 l 0.37,0.02 c 0.11,0.07 0.13,0.36 0.04,0.45 -0.7,0.05 -1.33,0.11 -1.94,0.18 -0.62,0.07 -1.26,0.16 -1.96,0.26 -0.11,-0.07 -0.14,-0.36 -0.05,-0.45 l 0.35,-0.11 C 48,16.65 48.07,16.55 47.93,15.34 L 47.39,10.59 C 47.25,9.38 47.16,9.29 46.56,9.26 L 46.19,9.24 C 46.08,9.17 46.04,8.88 46.14,8.79 c 0.7,-0.05 1.35,-0.11 1.97,-0.18 0.61,-0.07 1.25,-0.16 1.95,-0.26 0.11,0.07 0.15,0.36 0.05,0.45 l -0.36,0.1 c -0.58,0.17 -0.65,0.27 -0.51,1.48 z"
     id="path18"
     style="fill:#000000" /><path
     d="m 60.72,13.08 c -0.23,2.82 -2.27,4.37 -5.05,4.13 -2.61,-0.22 -4.35,-2.08 -4.13,-4.79 0.21,-2.57 2.29,-4.39 5,-4.16 2.69,0.22 4.4,2.19 4.18,4.82 z M 56.38,8.85 c -1.59,-0.13 -2.57,1.29 -2.75,3.45 -0.13,1.58 0.22,4.17 2.33,4.34 1.7,0.14 2.5,-1.46 2.67,-3.56 0.18,-2.22 -0.64,-4.1 -2.25,-4.23 z"
     id="path20"
     style="fill:#000000" /><path
     d="m 68.57,18.02 c -0.28,0.8 -0.56,1.57 -0.68,1.98 -0.14,0.12 -0.53,0.13 -0.82,0.03 -0.01,0 -0.2,-0.77 -0.52,-1.69 l -1.59,-4.51 c -0.4,-1.12 -0.62,-1.78 -0.78,-2.04 -0.1,0.1 -0.18,0.31 -0.34,0.76 L 63,14.92 c -0.35,0.99 -0.63,1.93 -0.61,2.31 0.02,0.3 0.27,0.48 0.57,0.64 l 0.33,0.17 c 0.06,0.13 -0.05,0.38 -0.15,0.43 C 62.49,18.21 62,18.02 61.51,17.85 61.06,17.69 60.6,17.54 60.12,17.4 c -0.05,-0.1 0.02,-0.37 0.15,-0.43 l 0.22,0.04 c 0.35,0.06 0.63,0.06 0.82,-0.17 0.25,-0.28 0.62,-1.19 0.97,-2.18 l 1.1,-3.11 c 0.24,-0.67 0.3,-0.87 0.28,-1.07 -0.03,-0.24 -0.14,-0.45 -0.55,-0.66 L 62.79,9.65 c -0.05,-0.13 0.07,-0.42 0.2,-0.41 0.57,0.23 1.18,0.46 1.68,0.64 0.42,0.15 0.78,0.26 1.04,0.33 -0.07,0.6 0.39,1.81 1.03,3.51 l 0.6,1.58 c 0.31,0.83 0.52,1.38 0.7,1.77 0.09,-0.11 0.17,-0.31 0.25,-0.53 l 0.6,-1.69 c 0.35,-0.99 0.63,-1.93 0.61,-2.31 -0.02,-0.3 -0.26,-0.48 -0.57,-0.64 l -0.31,-0.17 c -0.06,-0.13 0.05,-0.38 0.15,-0.43 0.65,0.26 1.13,0.44 1.63,0.62 0.45,0.16 0.9,0.31 1.38,0.45 0.05,0.1 -0.02,0.37 -0.15,0.43 L 71.4,12.76 c -0.34,-0.06 -0.6,-0.05 -0.8,0.17 -0.25,0.28 -0.63,1.18 -0.98,2.18 z"
     id="path22"
     style="fill:#000000" /><path
     d="m 78.31,25.64 c -0.34,0.43 -0.48,0.65 -0.32,0.84 0.01,0.07 -0.14,0.24 -0.23,0.22 -0.2,-0.11 -0.49,-0.29 -0.83,-0.41 -0.45,-0.17 -1.43,-0.73 -2,-1.18 -0.69,-0.55 -1.23,-1.09 -1.72,-1.95 -0.81,-1.42 -0.73,-3.2 0.43,-4.66 1.01,-1.27 2.47,-1.94 4.23,-1.65 0.99,0.17 1.94,0.66 2.81,1.35 1.13,0.9 1.5,1.58 1.82,1.84 -0.21,0.33 -0.77,1.05 -1.16,1.75 -0.13,0.08 -0.41,-0.13 -0.4,-0.29 0.43,-1.21 0.17,-2.2 -0.78,-2.95 -1.62,-1.28 -3.47,-0.56 -4.74,1.05 -1.16,1.46 -1.34,2.72 -1.04,3.69 0.23,0.71 0.71,1.19 1.09,1.49 0.58,0.46 0.79,0.44 1.32,-0.22 l 0.51,-0.64 c 0.43,-0.55 0.42,-0.66 -0.01,-1.12 l -0.4,-0.42 c -0.06,-0.15 0.12,-0.38 0.28,-0.36 0.71,0.59 1.2,1 1.69,1.39 0.49,0.39 1,0.77 1.36,1.03 0.03,0.13 -0.15,0.36 -0.28,0.36 l -0.27,-0.15 c -0.35,-0.19 -0.49,-0.14 -0.92,0.41 z"
     id="path24"
     style="fill:#000000" /><path
     d="m 83.43,23.9 c 1.02,-0.81 1.12,-0.92 0.84,-1.39 L 84.09,22.2 c -0.03,-0.14 0.22,-0.34 0.37,-0.26 0.66,0.72 1.33,1.49 2.09,2.46 0.69,0.87 1.14,1.72 1.21,2.29 0.12,0.87 -0.15,1.58 -0.8,2.09 -0.91,0.72 -1.78,0.41 -2.38,0.13 -0.13,-0.06 -0.19,-0.01 -0.26,0.13 -0.83,1.75 -1.27,2.78 -1.3,3.6 0,0.44 0.14,0.75 0.25,0.91 0.02,0.13 -0.13,0.25 -0.23,0.25 -0.2,-0.11 -0.48,-0.42 -0.73,-0.73 -0.74,-0.94 -0.87,-1.8 -0.49,-2.83 0.28,-0.75 0.6,-1.38 0.95,-2.04 0.18,-0.34 0.13,-0.57 -0.07,-0.82 -0.28,-0.36 -0.32,-0.36 -0.52,-0.2 l -1.25,0.99 c -0.94,0.74 -0.96,0.86 -0.68,1.38 l 0.17,0.32 c 0,0.11 -0.24,0.31 -0.36,0.28 -0.41,-0.56 -0.77,-1.03 -1.16,-1.52 -0.4,-0.51 -0.77,-0.95 -1.21,-1.46 0,-0.13 0.24,-0.32 0.36,-0.28 l 0.27,0.23 c 0.44,0.39 0.56,0.4 1.5,-0.34 z m -0.2,2.42 c -0.36,0.28 -0.36,0.34 0.11,0.94 0.29,0.37 0.55,0.51 0.9,0.55 0.31,0.04 0.79,-0.03 1.39,-0.5 0.92,-0.73 1.08,-1.73 0.45,-2.53 -0.33,-0.42 -0.38,-0.41 -0.87,-0.03 z"
     id="path26"
     style="fill:#000000" /><path
     d="m 90.21,39.32 c -2.56,1.2 -4.91,0.21 -6.1,-2.32 -1.11,-2.37 -0.36,-4.81 2.1,-5.96 2.33,-1.09 4.95,-0.2 6.1,2.26 1.15,2.45 0.29,4.9 -2.1,6.02 z m 1.52,-5.86 c -0.68,-1.45 -2.4,-1.59 -4.36,-0.67 -1.44,0.67 -3.5,2.26 -2.61,4.18 0.72,1.54 2.51,1.44 4.42,0.54 2.01,-0.94 3.23,-2.59 2.55,-4.05 z"
     id="path28"
     style="fill:#000000" /><path
     d="m 93.03,40.85 c 1.19,-0.22 1.25,-0.31 1.26,-0.91 v -0.33 c 0.06,-0.12 0.34,-0.18 0.44,-0.06 0.09,0.62 0.2,1.26 0.31,1.87 0.12,0.63 0.25,1.25 0.39,1.86 -0.06,0.12 -0.34,0.17 -0.43,0.08 l -0.11,-0.3 C 94.68,42.5 94.56,42.45 93.38,42.67 l -2.95,0.55 c -1.5,0.28 -3.11,0.75 -2.75,2.69 0.3,1.64 1.83,1.87 3.58,1.54 l 1.55,-0.29 c 1.04,-0.19 2,-0.42 2.3,-0.63 0.25,-0.17 0.27,-0.46 0.27,-0.82 v -0.36 c 0.08,-0.12 0.34,-0.14 0.43,-0.08 0.1,0.69 0.18,1.2 0.28,1.72 0.09,0.47 0.19,0.94 0.31,1.42 -0.06,0.09 -0.31,0.16 -0.44,0.08 l -0.09,-0.22 c -0.14,-0.32 -0.26,-0.55 -0.55,-0.61 -0.36,-0.08 -1.34,0.05 -2.38,0.24 l -1.44,0.3 c -1.2,0.22 -2.32,0.31 -3.23,-0.24 -0.71,-0.45 -1.2,-1.32 -1.39,-2.36 -0.18,-0.97 -0.19,-1.87 0.24,-2.66 0.43,-0.77 1.32,-1.22 2.71,-1.48 z"
     id="path30"
     style="fill:#000000" /><path
     d="m 94.17,50.96 c 1.31,0.05 1.47,0.03 1.55,-0.51 l 0.07,-0.4 c 0.07,-0.11 0.35,-0.1 0.44,0.04 0.03,0.86 0.04,1.87 0,3 -0.04,1.1 -0.2,1.83 -0.43,2.36 -0.33,0.78 -1.05,1.55 -2.31,1.5 -2.13,-0.08 -2.36,-2.24 -2.33,-2.93 0.01,-0.16 0.01,-0.27 0.03,-0.42 0.07,-0.1 0.28,-0.12 0.35,-0.02 0.29,1.09 1.05,1.34 2.01,1.38 0.96,0.04 2.02,-0.41 2.06,-1.58 0.02,-0.48 -0.12,-0.51 -0.64,-0.53 l -5.48,-0.21 c -1.21,-0.05 -1.31,0.03 -1.43,0.61 L 88,53.66 c -0.07,0.14 -0.37,0.13 -0.44,-0.02 0.05,-0.73 0.09,-1.36 0.12,-1.99 0.03,-0.62 0.04,-1.25 0.04,-1.95 0.08,-0.14 0.38,-0.15 0.44,-0.01 l 0.05,0.37 c 0.08,0.59 0.17,0.67 1.38,0.72 z"
     id="path32"
     style="fill:#000000" /><path
     d="m 52.7,20.32 c -17.39,0 -31.49,14.1 -31.49,31.49 0,17.39 14.1,31.49 31.49,31.49 17.39,0 31.49,-14.1 31.49,-31.49 0,-17.39 -14.1,-31.49 -31.49,-31.49 z M 71.13,74.8 c 1.11,-1.1 2.11,-2.29 3.06,-3.54 0.19,-0.26 0.49,-0.43 0.74,-0.64 0.45,-0.38 0.9,-0.76 1.36,-1.13 -1.49,1.98 -3.23,3.76 -5.16,5.31 z m -18.77,6.24 c 0.06,-0.6 0.15,-1.19 0.21,-1.78 0.02,-0.17 0.06,-0.27 0.23,-0.35 0.99,-0.46 1.98,-0.94 2.97,-1.41 0.06,-0.03 0.15,-0.05 0.2,-0.02 0.66,0.47 1.31,0.95 2.01,1.45 -0.39,0.49 -0.74,0.94 -1.1,1.39 -0.14,0.17 -0.3,0.32 -0.45,0.49 -0.1,0.11 -0.21,0.19 -0.33,0.28 -1.12,0.13 -2.26,0.2 -3.41,0.2 -0.12,0 -0.23,-0.01 -0.34,-0.01 -0.01,-0.07 0,-0.16 0.01,-0.24 z m 0.03,-58.71 c 0.1,0 0.21,-0.01 0.31,-0.01 1.2,0 2.38,0.08 3.55,0.22 0.68,0.63 1.27,1.34 1.83,2.16 -0.55,0.39 -1.1,0.75 -1.61,1.16 -0.34,0.27 -0.62,0.27 -1,0.07 -0.88,-0.45 -1.78,-0.85 -2.67,-1.27 -0.11,-0.05 -0.16,-0.11 -0.17,-0.24 -0.07,-0.67 -0.15,-1.34 -0.24,-2 -0.01,-0.05 -0.01,-0.07 0,-0.09 z M 77.5,36.76 c 0.92,0.7 1.29,1.74 1.68,2.75 0.42,1.11 0.79,2.25 1.17,3.38 0.02,0.07 0.04,0.16 0.03,0.23 -0.2,0.98 -0.62,1.86 -1.11,2.75 -0.24,-0.26 -0.46,-0.51 -0.71,-0.74 -0.7,-0.67 -1.4,-1.34 -2.11,-1.99 -0.23,-0.21 -0.37,-0.42 -0.45,-0.72 -0.39,-1.64 -0.92,-3.23 -1.56,-4.79 -0.09,-0.23 -0.11,-0.41 0.03,-0.62 0.42,-0.64 0.66,-1.35 0.88,-2.15 0.67,0.59 1.31,1.15 1.94,1.71 0.08,0.06 0.14,0.14 0.21,0.19 z m 2.55,24.93 c -0.52,1.52 -1.1,3.02 -1.82,4.47 -0.03,0.06 -0.06,0.14 -0.11,0.19 -0.92,0.89 -1.86,1.76 -2.93,2.54 -0.07,-0.24 -0.11,-0.46 -0.2,-0.67 -0.22,-0.54 -0.46,-1.07 -0.71,-1.6 -0.06,-0.13 -0.08,-0.23 -0.02,-0.37 0.71,-1.66 1.27,-3.38 1.72,-5.12 0.03,-0.11 0.09,-0.24 0.17,-0.31 1.05,-0.88 2.04,-1.81 2.98,-2.8 0.02,-0.02 0.04,-0.04 0.08,-0.07 0.33,0.65 0.63,1.29 0.86,1.97 0.21,0.6 0.19,1.16 -0.02,1.77 z M 74.41,46.92 c 0.37,-0.35 0.72,-0.72 1.07,-1.08 0.07,-0.07 0.14,-0.15 0.21,-0.24 1.14,0.96 2.16,1.99 3.12,3.06 0.04,0.05 0.07,0.13 0.07,0.2 0.04,1.31 0.08,2.62 0.09,3.94 0,0.67 -0.05,1.33 -0.1,2 -0.01,0.14 -0.08,0.3 -0.17,0.4 -0.94,1.03 -1.95,1.99 -3.04,2.89 -0.04,-0.03 -0.07,-0.07 -0.11,-0.1 -0.97,-0.94 -1.93,-1.89 -2.9,-2.82 -0.11,-0.11 -0.15,-0.2 -0.15,-0.36 0.04,-1.38 0.08,-2.77 0.1,-4.16 0.01,-0.61 -0.04,-1.22 -0.06,-1.83 -0.01,-0.14 0.03,-0.23 0.14,-0.32 0.58,-0.52 1.16,-1.05 1.73,-1.58 z M 59.39,79.03 c 0.08,-0.09 0.21,-0.15 0.33,-0.2 1.15,-0.51 2.3,-1.01 3.45,-1.51 0.01,0 0.01,0 0.03,0 0.27,0.43 0.4,0.9 0.4,1.4 0,0.05 -0.05,0.1 -0.09,0.14 -0.35,0.27 -0.7,0.52 -1.06,0.77 -1.62,0.57 -3.3,1 -5.03,1.28 0.71,-0.57 1.37,-1.2 1.97,-1.88 z m -1.75,-3.2 c -0.12,-0.09 -0.14,-0.16 -0.1,-0.31 0.35,-1.27 0.69,-2.55 1.03,-3.83 0.03,-0.11 0.1,-0.24 0.19,-0.28 1.45,-0.77 2.9,-1.53 4.35,-2.3 0.14,-0.08 0.23,-0.06 0.35,0.04 0.77,0.65 1.54,1.29 2.31,1.94 0.1,0.08 0.19,0.18 0.29,0.27 -0.61,1.3 -1.28,2.54 -2.04,3.74 -0.22,0.35 -0.48,0.59 -0.86,0.76 -1.06,0.47 -2.1,0.97 -3.14,1.47 -0.2,0.1 -0.33,0.08 -0.52,-0.07 -0.61,-0.49 -1.23,-0.96 -1.86,-1.43 z m 11.92,-0.41 c -1.18,0.61 -2.36,1.21 -3.54,1.82 -0.01,0.01 -0.03,0 -0.08,0.01 -0.04,-0.58 -0.23,-1.09 -0.51,-1.58 -0.03,-0.05 0,-0.16 0.03,-0.21 0.93,-1.23 1.75,-2.53 2.48,-3.88 0.07,-0.12 0.17,-0.25 0.28,-0.32 1.32,-0.79 2.65,-1.56 3.99,-2.36 0.29,0.55 0.61,1.11 0.8,1.74 0.12,0.38 0.04,0.66 -0.2,0.98 -0.95,1.28 -1.96,2.51 -3.08,3.64 -0.04,0.06 -0.1,0.13 -0.17,0.16 z m 2.88,-9.1 c -0.03,0.08 -0.09,0.17 -0.16,0.22 -1.36,0.84 -2.73,1.68 -4.1,2.52 -0.02,0.01 -0.04,0.01 -0.07,0.03 -0.26,-0.24 -0.51,-0.5 -0.78,-0.73 -0.64,-0.55 -1.28,-1.1 -1.93,-1.64 -0.13,-0.1 -0.16,-0.19 -0.12,-0.35 0.45,-1.7 0.77,-3.42 1.04,-5.15 0.03,-0.22 0.14,-0.3 0.3,-0.41 1.43,-0.93 2.85,-1.87 4.28,-2.8 0.02,-0.02 0.05,-0.03 0.13,-0.08 0.92,0.89 1.83,1.79 2.76,2.66 0.25,0.24 0.29,0.45 0.21,0.78 -0.43,1.67 -0.93,3.33 -1.56,4.95 z M 60.52,48.71 c 0,-0.12 0.02,-0.2 0.13,-0.27 1.51,-0.97 3.02,-1.96 4.53,-2.93 0.05,-0.03 0.17,-0.04 0.22,0 1.49,0.99 2.97,1.99 4.45,3 0.06,0.04 0.12,0.15 0.13,0.23 0.11,1.95 0.09,3.9 0.01,5.86 -0.01,0.3 -0.1,0.48 -0.36,0.65 -1.45,0.95 -2.89,1.93 -4.31,2.88 -1.6,-1.04 -3.14,-2.04 -4.68,-3.04 -0.13,-0.08 -0.13,-0.17 -0.13,-0.29 0.02,-1.56 0.03,-3.11 0.04,-4.67 0,-0.48 -0.02,-0.95 -0.03,-1.42 z m 3.01,-14.26 c -0.1,0.08 -0.17,0.09 -0.29,0.03 -1.47,-0.78 -2.94,-1.55 -4.4,-2.34 -0.08,-0.04 -0.15,-0.15 -0.18,-0.24 -0.35,-1.29 -0.7,-2.58 -1.05,-3.87 -0.04,-0.13 -0.01,-0.2 0.1,-0.28 0.66,-0.48 1.32,-0.97 1.97,-1.47 0.1,-0.08 0.18,-0.14 0.33,-0.07 1.21,0.58 2.43,1.15 3.65,1.72 0.08,0.04 0.18,0.09 0.22,0.16 0.87,1.31 1.63,2.69 2.3,4.17 -0.65,0.54 -1.31,1.1 -1.97,1.64 -0.21,0.2 -0.45,0.37 -0.68,0.55 z m 10.56,8.41 c -0.98,0.92 -1.97,1.83 -2.96,2.74 -0.03,0.03 -0.07,0.05 -0.12,0.08 -0.58,-0.4 -1.16,-0.81 -1.75,-1.2 -0.85,-0.56 -1.69,-1.13 -2.56,-1.66 -0.28,-0.17 -0.33,-0.39 -0.37,-0.66 -0.24,-1.64 -0.56,-3.27 -0.96,-4.88 -0.05,-0.19 0,-0.3 0.14,-0.42 0.87,-0.73 1.74,-1.47 2.6,-2.21 0.11,-0.09 0.17,-0.09 0.28,-0.02 1.33,0.84 2.67,1.67 4,2.52 0.07,0.04 0.13,0.12 0.16,0.2 0.67,1.74 1.19,3.52 1.6,5.34 0.01,0.04 -0.02,0.13 -0.06,0.17 z M 73.27,32.8 c -0.12,0.34 -0.22,0.7 -0.37,1.03 -0.15,0.34 -0.34,0.66 -0.51,0.97 -1.38,-0.82 -2.73,-1.63 -4.07,-2.43 -0.08,-0.05 -0.14,-0.13 -0.18,-0.21 -0.72,-1.38 -1.56,-2.69 -2.49,-3.93 -0.07,-0.09 -0.1,-0.16 -0.03,-0.27 0.29,-0.46 0.48,-0.95 0.53,-1.51 0.06,0.02 0.09,0.02 0.12,0.04 1.16,0.61 2.33,1.21 3.48,1.83 0.19,0.1 0.34,0.3 0.5,0.46 1.08,1.15 2.07,2.36 2.96,3.66 0.09,0.12 0.11,0.22 0.06,0.36 z m -9.55,-7.98 c 0.11,0.07 0.12,0.15 0.11,0.27 -0.03,0.46 -0.24,0.85 -0.45,1.25 -1.11,-0.48 -2.19,-0.97 -3.28,-1.43 -0.34,-0.14 -0.61,-0.34 -0.85,-0.62 -0.51,-0.57 -1.07,-1.09 -1.67,-1.57 1.71,0.29 3.37,0.72 4.96,1.29 0.4,0.27 0.79,0.55 1.18,0.81 z m -6.08,9.59 c 0.07,-0.04 0.18,-0.04 0.25,-0.01 1.53,0.82 3.06,1.65 4.58,2.47 0.12,0.07 0.19,0.15 0.21,0.3 0.26,1.66 0.51,3.32 0.79,4.97 0.06,0.35 -0.04,0.52 -0.32,0.7 -1.42,0.87 -2.82,1.76 -4.23,2.65 -0.12,0.08 -0.21,0.05 -0.31,-0.01 -1.36,-0.77 -2.72,-1.55 -4.09,-2.32 -0.33,-0.19 -0.66,-0.37 -1,-0.55 -0.11,-0.06 -0.16,-0.12 -0.16,-0.25 -0.02,-1.63 -0.06,-3.26 -0.09,-4.89 0,-0.12 -0.01,-0.23 -0.02,-0.37 -0.04,-0.14 0.04,-0.22 0.18,-0.3 1.41,-0.8 2.81,-1.6 4.21,-2.39 z m -5.95,22.87 c -2.59,-0.48 -4.56,-2.74 -4.56,-5.47 0,-2.73 1.97,-5 4.56,-5.47 0.33,-0.06 0.66,-0.1 1.01,-0.1 3.08,0 5.57,2.49 5.57,5.57 0,3.08 -2.49,5.57 -5.57,5.57 -0.34,-0.01 -0.68,-0.04 -1.01,-0.1 z m 1.56,8.9 c 0.04,-1.69 0.08,-3.38 0.12,-5.06 0,-0.07 0.06,-0.16 0.13,-0.2 1.7,-0.96 3.4,-1.92 5.1,-2.88 0.13,-0.07 0.22,-0.06 0.33,0.02 1.46,0.93 2.91,1.87 4.37,2.79 0.13,0.08 0.17,0.17 0.15,0.32 -0.13,0.86 -0.24,1.73 -0.37,2.59 -0.14,0.87 -0.31,1.73 -0.46,2.59 -0.03,0.17 -0.1,0.28 -0.26,0.36 -1.49,0.79 -2.98,1.59 -4.47,2.39 -0.14,0.07 -0.23,0.07 -0.35,0 C 56.26,68.36 54.98,67.62 53.7,66.88 53.67,66.87 53.65,66.85 53.62,66.84 53.3,66.73 53.14,66.53 53.25,66.18 Z M 81.4,58.03 c -0.14,-0.47 -0.23,-0.89 -0.38,-1.29 -0.2,-0.52 -0.44,-1.02 -0.66,-1.53 -0.04,-0.09 -0.06,-0.19 -0.06,-0.29 0.04,-1.32 0.11,-2.64 0.12,-3.96 0.01,-0.68 -0.07,-1.36 -0.1,-2.04 0,-0.08 0,-0.17 0.04,-0.23 0.49,-0.84 0.82,-1.74 1.05,-2.68 0.01,-0.04 0.03,-0.07 0.06,-0.13 0.08,0.14 0.13,0.28 0.2,0.42 0.34,1.78 0.52,3.62 0.52,5.5 0,1.99 -0.2,3.94 -0.58,5.82 -0.07,0.14 -0.14,0.27 -0.21,0.41 z M 76.5,34.42 c -0.44,-0.4 -0.89,-0.79 -1.33,-1.19 -0.25,-0.22 -0.56,-0.4 -0.76,-0.66 -0.94,-1.26 -1.93,-2.47 -3.05,-3.58 1.94,1.59 3.66,3.41 5.14,5.43 z M 23.21,51.81 c 0,-15.92 12.69,-28.93 28.48,-29.46 0,1.15 0,2.31 0,3.46 0,0.17 0.05,0.26 0.2,0.33 1.1,0.53 2.2,1.08 3.3,1.62 0.12,0.06 0.18,0.13 0.2,0.26 0.21,1.28 0.41,2.56 0.63,3.84 0.03,0.17 -0.02,0.25 -0.16,0.32 -1.15,0.62 -2.3,1.25 -3.45,1.87 -9.65,0.15 -17.43,8.01 -17.43,17.7 0,9.64 7.71,17.47 17.3,17.69 1.07,0.59 2.13,1.19 3.21,1.76 0.39,0.21 0.53,0.41 0.44,0.87 -0.24,1.16 -0.41,2.34 -0.61,3.5 -0.02,0.13 -0.08,0.2 -0.2,0.26 -1.09,0.54 -2.17,1.09 -3.26,1.63 -0.13,0.06 -0.18,0.13 -0.17,0.28 0.01,1.18 0,2.36 0,3.54 C 35.9,80.73 23.21,67.73 23.21,51.81 Z"
     id="path36"
     style="fill:#000000" /></g>
</svg>
